<svg width="300" height="300" viewBox="0 0 300 300" fill="none" xmlns="http://www.w3.org/2000/svg">
<g clip-path="url(#clip0_230_3)">
<path d="M153.229 161.303C162.604 163.907 171.302 168.282 179.01 174.167L263.125 146.146C267.5 144.688 269.844 139.948 268.385 135.625L236.927 41.2503C235.469 36.8754 230.729 34.5315 226.406 35.9898L194.583 46.6149L211.823 98.3856L180.208 108.854L162.969 57.0837L130.886 67.7607C126.51 69.219 124.167 73.9587 125.625 78.2817L153.229 161.303ZM299.583 186.667L294.271 170.834C292.813 166.459 288.073 164.115 283.75 165.573L172.552 202.657C163.594 191.198 149.844 183.698 134.271 183.386L82.5 28.0733C80.2083 21.2503 73.8543 16.667 66.6666 16.667H8.33334C3.75 16.667 0 20.417 0 25.0003V41.667C0 46.2504 3.75 50.0004 8.33334 50.0004H54.6354L102.656 194.115C89.0625 204.74 80.9376 222.032 83.9064 241.25C87.0834 261.771 103.646 278.907 124.167 282.5C155.521 288.073 182.656 264.375 183.229 234.271L294.323 197.188C298.646 195.73 301.041 191.042 299.583 186.667ZM133.333 258.334C119.531 258.334 108.333 247.136 108.333 233.334C108.333 219.532 119.531 208.334 133.333 208.334C147.135 208.334 158.333 219.532 158.333 233.334C158.333 247.136 147.135 258.334 133.333 258.334Z" fill="#F2F2F2"/>
</g>
<defs>
<clipPath id="clip0_230_3">
<rect width="300" height="300" fill="white"/>
</clipPath>
</defs>
</svg>
